<svg version="1.1" id="Layer_1" xmlns="http://www.w3.org/2000/svg" xmlns:xlink="http://www.w3.org/1999/xlink" x="0px" y="0px"
	 width="100%" viewBox="0 0 1024 304" enable-background="new 0 0 1024 304" xml:space="preserve">
<path fill="#000000" opacity="1.000000" stroke="none"
	d="
M154.887344,94.696518
	C170.839355,95.559425 183.613220,101.657318 193.789520,115.496902
	C193.789520,110.094482 193.856628,106.022888 193.767014,101.954750
	C193.702255,99.015022 194.960846,97.674591 197.929550,97.719360
	C202.761169,97.792236 207.595032,97.765358 212.427399,97.721771
	C215.147247,97.697235 216.386627,98.965202 216.317673,101.675949
	C216.258377,104.007401 216.319809,106.341805 216.319901,108.674904
	C216.321381,146.338623 215.430389,184.029282 216.568008,221.658630
	C217.750137,260.759521 192.776855,277.210022 161.783844,279.141937
	C142.088852,280.369598 123.935341,276.469055 109.306068,262.065979
	C102.357468,255.224792 97.553291,245.786133 97.057678,238.190216
	C104.057991,236.154373 111.404366,236.655823 118.607292,236.055405
	C120.607559,235.888641 121.384018,237.628601 122.065086,239.177917
	C127.525536,251.599579 137.951492,255.974106 150.569733,256.652924
	C158.598389,257.084839 166.499557,256.453033 174.195831,253.748459
	C184.389847,250.166168 190.747009,243.414352 192.253860,232.572006
	C193.259125,225.338654 192.628357,218.069061 192.726425,209.541092
	C184.277969,221.170471 173.854584,227.646713 160.892807,229.194153
	C132.246307,232.614105 107.991814,218.800537 97.968292,191.557327
	C88.308250,165.302017 89.723755,139.275253 107.208183,116.126564
	C118.846184,100.718330 135.168625,94.119705 154.887344,94.696518
M158.169815,117.303429
	C156.504028,117.283478 154.838013,117.234413 153.172501,117.248138
	C138.294144,117.370728 127.698326,124.244949 121.831757,137.851440
	C115.788948,151.866714 115.552200,166.512436 119.786827,180.897949
	C123.684052,194.137253 132.003479,204.165451 146.378769,206.502197
	C161.883362,209.022522 175.506989,205.485046 184.737305,191.275406
	C192.113922,179.919434 193.599472,167.276855 192.497330,154.341919
	C190.690109,133.132111 178.759705,120.307602 158.169815,117.303429
z"/>
<path fill="#000000" opacity="1.000000" stroke="none"
	d="
M671.337097,200.971420
	C671.367798,204.796387 671.188660,208.145645 671.479187,211.453659
	C671.876892,215.982712 674.047852,219.085983 679.134338,218.727707
	C683.163757,218.443909 684.449036,220.364044 684.257202,224.099762
	C684.086487,227.422363 683.988708,230.782623 684.288269,234.087341
	C684.721741,238.868454 682.288452,240.271790 678.078430,240.225266
	C659.536011,240.020264 653.531433,236.981873 648.141968,221.223221
	C637.384583,235.471252 622.691956,241.851196 605.455322,242.649765
	C591.855042,243.279846 578.801636,240.923141 567.843079,232.144531
	C556.998718,223.457428 554.525024,211.499512 556.000122,198.390396
	C557.731567,183.003433 566.264587,172.838196 580.435364,167.055969
	C594.770752,161.206528 610.184509,160.113739 625.095581,156.812073
	C630.935364,155.518997 636.849854,154.502838 642.773987,153.672287
	C646.754883,153.114166 647.900085,151.175140 647.713135,147.292236
	C646.887939,130.151642 633.844727,118.874466 615.139954,119.468254
	C600.119629,119.945099 588.777771,125.950676 583.629395,140.912964
	C582.787109,143.360947 581.429871,144.439178 578.846985,144.175720
	C573.387024,143.618790 567.926208,143.003586 562.449768,142.696930
	C558.433105,142.472031 557.803772,140.643402 558.839783,137.156586
	C564.259094,118.917984 575.758179,106.255623 593.866150,100.437164
	C608.617615,95.697227 623.800049,95.736954 638.542725,100.625885
	C657.412170,106.883339 666.859314,121.162399 670.304443,140.090225
	C671.174316,144.869186 671.354309,149.666443 671.343506,154.501526
	C671.309265,169.826721 671.334412,185.152054 671.337097,200.971420
M594.303223,220.400589
	C602.189026,222.529404 610.120728,222.265808 617.988220,220.500732
	C638.767273,215.838943 652.242737,194.315216 646.943481,173.657791
	C640.169739,174.851089 633.323486,175.964050 626.516113,177.278458
	C616.572815,179.198395 606.593628,180.997025 596.752869,183.360458
	C590.327454,184.903641 584.572327,187.963348 581.764038,194.609589
	C577.251160,205.289886 581.756042,215.001556 594.303223,220.400589
z"/>
<path fill="#000000" opacity="1.000000" stroke="none"
	d="
M815.082947,213.951965
	C801.067871,238.197113 776.476807,245.782639 751.466125,241.854889
	C720.933594,237.060028 703.238403,212.631241 699.866699,182.022797
	C698.112000,166.093307 699.114502,150.313370 705.467590,135.432129
	C715.436646,112.081032 732.838379,98.876839 758.746033,97.577049
	C777.470764,96.637634 794.483704,100.202477 808.083862,114.246552
	C815.791565,122.205757 819.609924,131.994278 821.874878,142.590683
	C822.485474,145.447433 821.290649,146.732880 818.650330,146.925980
	C812.840698,147.350861 807.022583,147.657791 801.210999,148.058456
	C798.625916,148.236694 797.641541,146.623245 797.179504,144.519150
	C792.038025,121.106644 764.674988,114.679626 746.467041,123.082870
	C735.195007,128.285126 729.671143,138.186584 726.604675,149.302597
	C722.925415,162.639755 722.785461,176.384811 726.393555,189.820145
	C733.941284,217.925110 755.814575,225.156540 778.274292,217.168365
	C788.434814,213.554611 794.179688,205.276932 796.576904,194.972137
	C797.569763,190.704285 799.434082,189.121643 803.732849,189.610840
	C808.521790,190.155823 813.358154,190.334991 818.179688,190.525665
	C821.514099,190.657562 822.511841,192.082321 821.754333,195.339508
	C820.276611,201.693466 818.431519,207.888702 815.082947,213.951965
z"/>
<path fill="#000000" opacity="1.000000" stroke="none"
	d="
M922.853088,160.919617
	C936.805786,161.093353 941.329346,165.633209 941.329834,179.000366
	C941.330383,194.666977 941.350830,210.333649 941.308044,226.000153
	C941.281738,235.612473 935.776672,241.211395 926.093933,241.264709
	C909.427795,241.356491 892.760437,241.356491 876.094421,241.259430
	C867.151489,241.207336 861.158081,235.603119 861.030701,226.689713
	C860.787781,209.693253 860.791992,192.689468 860.985962,175.692062
	C861.091370,166.458099 866.832703,161.059204 876.375122,160.966492
	C891.707031,160.817505 907.041321,160.922302 922.853088,160.919617
z"/>
<path fill="#000000" opacity="1.000000" stroke="none"
	d="
M439.212219,112.938507
	C439.141663,121.244843 439.141663,121.236687 431.579346,121.229874
	C423.418762,121.222519 415.255035,121.365623 407.098969,121.175278
	C403.367096,121.088181 402.223511,122.502502 402.240845,126.146935
	C402.363464,151.960480 402.248657,177.775131 402.362946,203.588760
	C402.408478,213.871780 407.134552,218.506149 417.381836,218.736603
	C422.875092,218.860138 428.377899,218.920776 433.867157,218.735489
	C437.664001,218.607315 439.446930,219.946609 439.252899,223.907745
	C439.065735,227.729279 439.198151,231.566574 439.195435,235.396957
	C439.193848,237.626923 438.639984,239.461349 435.915161,239.356461
	C423.984619,238.897247 411.938751,240.849304 400.146240,237.451859
	C389.552917,234.399887 383.153625,227.442108 380.562408,216.869965
	C379.250366,211.516876 378.737671,206.060226 378.745239,200.538651
	C378.778870,176.056870 378.655151,151.574127 378.858948,127.093979
	C378.897125,122.508331 377.543945,121.055786 372.937073,121.099083
	C358.597961,121.233826 358.596375,121.066437 358.640625,106.658264
	C358.659760,100.419678 358.954651,100.111069 365.014771,99.987083
	C378.699860,99.707092 378.698669,99.707085 378.736572,85.930779
	C378.748932,81.434204 378.867126,76.935181 378.754242,72.441872
	C378.666931,68.967316 380.268585,67.686729 383.604950,67.784073
	C388.264557,67.920029 392.932587,67.936256 397.592804,67.826385
	C400.967499,67.746819 402.394562,69.094826 402.330200,72.555634
	C402.190857,80.047333 402.447845,87.547722 402.242645,95.036331
	C402.141327,98.734039 403.484558,100.076416 407.149414,100.005486
	C415.473358,99.844360 423.802704,99.937843 432.129730,99.965256
	C438.915436,99.987595 439.188873,100.280853 439.210571,106.961533
	C439.216522,108.793388 439.212189,110.625267 439.212219,112.938507
z"/>
<path fill="#000000" opacity="1.000000" stroke="none"
	d="
M525.045044,99.962227
	C535.284790,99.978294 535.284729,99.978294 535.275208,109.778786
	C535.262695,122.704094 535.263428,122.837608 522.346619,122.900917
	C511.547302,122.953850 501.678986,124.829475 495.429840,134.867752
	C490.712189,142.445877 490.551544,151.091354 490.473816,159.546356
	C490.248627,184.044052 490.265411,208.546555 490.512451,233.043900
	C490.563934,238.150055 488.998291,239.943436 483.969116,239.476990
	C480.003052,239.109161 475.965851,239.219528 471.978912,239.445938
	C467.976135,239.673218 466.814636,237.924225 466.845367,234.124481
	C466.985382,216.792358 466.924835,199.458572 466.924072,182.125381
	C466.922943,157.125595 466.892395,132.125793 466.916229,107.126038
	C466.922638,100.430244 467.348236,100.067497 473.987915,99.987007
	C475.821014,99.964783 477.654480,99.968254 479.487793,99.970337
	C488.193878,99.980209 488.206635,99.981339 488.309174,108.926514
	C488.348724,112.378197 488.315643,115.830711 488.789032,119.709465
	C496.023468,104.186714 509.137787,99.924240 525.045044,99.962227
z"/>
<path fill="#000000" opacity="1.000000" stroke="none"
	d="
M265.621918,106.881042
	C268.118561,105.358322 269.765289,106.673035 271.410187,107.795708
	C291.755280,121.681564 312.110992,135.552048 332.414246,149.498917
	C336.621918,152.389297 336.601624,154.668457 332.480927,157.495193
	C312.306488,171.334656 292.106171,185.136444 271.888885,198.913254
	C270.161194,200.090591 268.424408,201.794968 266.014648,200.458572
	C263.727783,199.190338 264.007629,196.907715 263.757965,194.756546
	C262.976166,188.019867 265.769653,183.475357 271.417969,179.807816
	C282.442322,172.649521 293.158875,165.017197 304.002563,157.580719
	C309.486115,153.820175 309.542023,153.252258 303.892303,149.345993
	C292.530396,141.490265 281.078949,133.764206 269.694336,125.941078
	C263.347443,121.579681 261.693573,114.331306 265.621918,106.881042
z"/>
</svg>
